<?xml version="1.0" encoding="utf-8"?>
<!-- Generator: Adobe Illustrator 16.0.3, SVG Export Plug-In . SVG Version: 6.00 Build 0)  -->
<!DOCTYPE svg PUBLIC "-//W3C//DTD SVG 1.1//EN" "http://www.w3.org/Graphics/SVG/1.1/DTD/svg11.dtd">
<svg version="1.1" id="Layer_1" xmlns="http://www.w3.org/2000/svg" xmlns:xlink="http://www.w3.org/1999/xlink" x="0px" y="0px"
	 width="120.3px" height="40px" viewBox="0 0 120.3 40" enable-background="new 0 0 120.3 40" xml:space="preserve">
<g>
	<rect x="11" y="10.9" fill="#F84644" width="22" height="2"/>
</g>
<path fill="#464C50" d="M110.7,8.8v22h-26v-22H110.7 M112.7,6.8h-30v26h30V6.8L112.7,6.8z"/>
<path fill="#F84644" d="M173.7,59l-3,8l8-3.1l3.1-8L173.7,59z"/>
<g>
	<g>
		<path fill="#464C50" d="M167.2-20v17h-20h-0.7L146-2.6l-5.8,4.5V-1v-19H167.2 M169.2-22h-31v21v7l9-7h22V-22L169.2-22z"/>
	</g>
</g>
<g>
	<rect x="87.4" y="10.9" fill="#F84644" width="13" height="2"/>
</g>
<g>
	<rect x="87.4" y="14" fill="#F84644" width="13" height="2"/>
</g>
<g>
	<rect x="87.4" y="17.3" fill="#F84644" width="13" height="2"/>
</g>
<g>
	<rect x="87.4" y="26.5" fill="#F84644" width="13" height="2"/>
</g>
<path fill="#464C50" d="M9,29.8v-21h26v21H9 M7,31.8h30v-25H7V31.8L7,31.8z"/>
<rect x="28" y="29.9" fill="#464C50" width="3" height="4.9"/>
<rect x="13" y="29.9" fill="#464C50" width="3" height="4.9"/>
<g>
	<rect x="51.7" y="12.9" fill="#F84644" width="6" height="2"/>
</g>
<g>
	<rect x="51.7" y="9.2" fill="#F84644" width="6" height="2"/>
</g>
<g>
	<rect x="61.7" y="9.2" fill="#F84644" width="8.1" height="9.1"/>
</g>
<g>
	<rect x="51.7" y="16.3" fill="#F84644" width="6" height="2"/>
</g>
<g>
	<rect x="51.6" y="24.9" fill="#F84644" width="12" height="2"/>
</g>
<g>
	<rect x="51.6" y="28.5" fill="#F84644" width="12" height="2"/>
</g>
<path fill="#464C50" d="M71.1,32.7H47.9V7h23.2V32.7 M73.2,34.8v-30H45.8v30H73.2L73.2,34.8z"/>
<circle fill="none" stroke="#464C50" stroke-width="2" stroke-miterlimit="10" cx="176.2" cy="61.5" r="13.5"/>
<polygon fill="#F84644" points="126,74.5 127.4,75.9 135.2,68.1 139,71.9 140.4,70.5 135.2,65.3 135.2,65.3 135.2,65.3 "/>
<g>
	<rect x="11" y="15" fill="#F84644" width="16.2" height="2"/>
</g>
<g>
	<rect x="11" y="19" fill="#F84644" width="11" height="2"/>
</g>
<g>
	<rect x="11" y="25.9" fill="#F84644" width="4.3" height="2"/>
</g>
<g>
	<rect x="17.1" y="25.9" fill="#F84644" width="4.3" height="2"/>
</g>
<g>
	<rect x="23.4" y="25.9" fill="#F84644" width="4.3" height="2"/>
</g>
<g>
	<rect x="107.4" y="10.9" fill="#F84644" width="2" height="17.6"/>
</g>
</svg>
