<?xml version="1.0" encoding="utf-8"?>
<!-- Generator: Adobe Illustrator 16.0.3, SVG Export Plug-In . SVG Version: 6.00 Build 0)  -->
<!DOCTYPE svg PUBLIC "-//W3C//DTD SVG 1.1//EN" "http://www.w3.org/Graphics/SVG/1.1/DTD/svg11.dtd">
<svg version="1.1" id="Layer_1" xmlns="http://www.w3.org/2000/svg" xmlns:xlink="http://www.w3.org/1999/xlink" x="0px" y="0px"
	 width="126.1px" height="62.3px" viewBox="0 0 126.1 62.3" enable-background="new 0 0 126.1 62.3" xml:space="preserve">
<g>
	<path fill="none" d="M41.6,35.5c1.5-1.9,2-4.4,2-6.7c0-2.5-0.6-5.2-2.3-7.1c-1.7-1.9-4.3-2.7-6.8-2.5c-2.2,0.2-4.4,1.4-5.7,3.3
		c-1.3,1.9-1.5,4.4-1.5,6.6c0,4.8,2.9,9.3,8.1,9.3C37.8,38.5,40.1,37.5,41.6,35.5z M36.6,30.1l-1.2-0.6l-1.2,0.6l0.2-1.3l-1-0.9
		l1.3-0.2l0.6-1.2l0.6,1.2l1.3,0.2l-1,0.9L36.6,30.1z"/>
	<path fill="none" d="M60.4,19.2c-2.2,0.2-4.4,1.4-5.7,3.3c-1.3,1.9-1.5,4.4-1.5,6.6c0,4.8,2.9,9.3,8.1,9.3c2.4,0,4.7-1,6.2-2.9
		c1.5-1.9,2-4.4,2-6.7c0-2.5-0.6-5.2-2.3-7.1C65.5,19.8,62.9,19,60.4,19.2z M62.5,30.2l-1.2-0.6l-1.2,0.6l0.2-1.3l-1-0.9l1.3-0.2
		l0.6-1.2l0.6,1.2l1.3,0.2l-1,0.9L62.5,30.2z"/>
	<path fill="#F0EEE1" d="M101.8,9.7c0.1-0.5-0.3-0.7-0.7-0.7c-0.1,0-1,0-1,0c0,0.3,0,0.7,0,1h0.6C101.1,10.1,101.7,10.2,101.8,9.7z"
		/>
	<path fill="#F0EEE1" d="M101,6.6c-2.1,0-3.9,1.8-3.9,3.9s1.8,3.9,3.9,3.9s3.9-1.8,3.9-3.9S103.1,6.6,101,6.6z M102.1,12.5l-0.6-0.9
		c-0.4-0.5-0.6-0.9-1.3-0.8c0,0.5,0,0.9,0,1.4c0,0.5-0.3,0.3-0.8,0.3V8.3h1.8c0.6,0,1.3,0,1.6,0.7c0.3,0.8-0.2,1.5-1,1.6
		c0.7,0.4,1,1.2,1.4,1.8H102.1z"/>
	<path fill="#F0EEE1" d="M9.6,38.3c-4.5-0.7-6.2-4.8-6.4-9c-0.2-4,1.1-8.6,5.4-9.9c1.8-0.5,4.1-0.5,5.8,0.4c1.6,0.9,2.6,2.5,3.1,4.2
		c1-0.2,2.1-0.5,3.1-0.7c-0.2-0.6-0.4-1.2-0.7-1.8c-2.4-5-8.5-6.3-13.3-4.3c-5.3,2.2-7.2,8-6.5,13.4c0.3,2.6,1.2,5.4,3.1,7.3
		c1.7,1.9,4.1,2.8,6.6,3c2.6,0.2,5.3-0.2,7.5-1.8c2-1.5,3.2-3.7,3.8-6.1l-3.2-0.8C17.1,36.4,13.8,39,9.6,38.3z"/>
	<path fill="#F0EEE1" d="M24,29.6c0,0,0-0.2,0-0.5"/>
	<path fill="#F0EEE1" d="M24,27.8c0,0,0,0.4,0,1.4"/>
	<path fill="#F0EEE1" d="M44.4,36.9c3.2-4.3,3.3-11.1,0.5-15.6c-2.9-4.5-9-6-13.8-4.1c-4.9,1.9-7,6.9-7,11.9c0,4.2,1.9,8.4,5.7,10.6
		C34.4,42.4,41.1,41.3,44.4,36.9z M27.3,29.2c0-2.3,0.3-4.7,1.5-6.6c1.2-1.9,3.5-3.1,5.7-3.3c2.5-0.3,5.1,0.6,6.8,2.5
		c1.7,1.9,2.3,4.6,2.3,7.1c0,2.4-0.5,4.8-2,6.7c-1.5,1.9-3.8,2.9-6.2,2.9C30.2,38.5,27.3,34,27.3,29.2z"/>
	<path fill="#F0EEE1" d="M56.9,17.3c-4.9,1.9-7,6.9-7,11.9c0,4.2,1.9,8.4,5.7,10.6c4.7,2.7,11.4,1.6,14.7-2.8
		c3.2-4.3,3.3-11.1,0.5-15.6C67.8,16.9,61.8,15.4,56.9,17.3z M67.5,35.5c-1.5,1.9-3.8,2.9-6.2,2.9c-5.2,0-8.1-4.5-8.1-9.3
		c0-2.3,0.3-4.7,1.5-6.6c1.2-1.9,3.5-3.1,5.7-3.3c2.5-0.3,5.1,0.6,6.8,2.5c1.7,1.9,2.3,4.6,2.3,7.1C69.5,31.2,69,33.7,67.5,35.5z"/>
	<path fill="#F0EEE1" d="M95.9,16.9h-4.3L79.8,28.7V16.9h-3.2v23.8c1,0,2.1,0,3.1,0c0.1,0,0.1-1.7,0.1-1.9c0-2.1,0-4.3,0-6.4
		l3.9-3.8l8.5,12.1h4.2L85.9,26.6L95.9,16.9z"/>
	<path fill="#F0EEE1" d="M99.4,40.7c0,0,0.1,0,0.1,0c0.3,0,3,0,3,0c0-0.5,0-1.1,0-1.6c0-2.7,0-5.4,0-8.2c0-4.7,0-9.3,0-14h-3.2V40.7
		z"/>
	<path fill="#F0EEE1" d="M111.5,37.9v-8.1h13.2V27h-13.2v-7.3h14.1v-2.8h-17.2v23.8c3.7,0,7.4,0,11.1,0c2,0,4,0,5.9,0
		c0.2,0,0.8,0.1,0.8-0.1c0-0.9,0-1.8,0-2.7H111.5z"/>
	<path fill="#F0EEE1" d="M60.8,42.2c-3.3-0.1-10.5,1.1-10.6-4h-3.1C47,42.9,41,42,37.8,42.1c-1.7,0-3.7,0-5.2,0.9
		c-1.8,1.1-2.2,3-2.2,5v1.1h3c0-1.3-0.1-3.1,1.4-3.6c1.3-0.4,2.8-0.3,4.1-0.3c2,0,4,0,5.9-0.5c1.7-0.5,2.9-1.8,3.7-3.4
		c1.4,3.3,4.5,3.8,7.7,3.9c1.9,0,3.9-0.2,5.7,0.2c1.5,0.3,1.7,1.7,1.7,3.1v0.6h3c0-1.6,0.1-3.3-0.8-4.7
		C64.9,42.7,62.7,42.2,60.8,42.2z"/>
	
		<rect x="46.8" y="-9.8" transform="matrix(0.1589 0.9873 -0.9873 0.1589 51.9931 -37.9146)" fill="#F0EEE1" width="2.9" height="42.7"/>
	<path fill="#F0EEE1" d="M32.9,11.6c-0.2-1.1-0.3-2.1-0.5-3.2c0.4-0.1,0.8-0.1,1.2-0.2c9.6-1.5,19.1-3.1,28.7-4.6
		c0.1,0.6,0.2,1.1,0.3,1.7c0,0.2,0.1,1.4,0.2,1.5C63,7,64,6.6,64.3,6.6c0.5-0.1,1-0.2,1.6-0.3c-0.2-1.5-0.5-3-0.7-4.4
		c-0.1-0.4,0-2-0.5-1.9c-2.1,0.3-4.1,0.7-6.2,1c-9.8,1.6-19.7,3.2-29.5,4.7c0.3,2.1,0.7,4.3,1,6.4C30.2,12.1,32.9,11.7,32.9,11.6z"
		/>
	<polygon fill="#F0EEE1" points="36,27.7 35.4,26.5 34.8,27.7 33.5,27.8 34.4,28.8 34.2,30.1 35.4,29.5 36.6,30.1 36.4,28.8 
		37.3,27.8 	"/>
	<polygon fill="#F0EEE1" points="61.9,27.8 61.3,26.6 60.7,27.8 59.4,28 60.4,28.9 60.2,30.2 61.3,29.6 62.5,30.2 62.3,28.9 
		63.2,28 	"/>
	<path fill="#F0EEE1" d="M35.9,55.9c0,0.6,0,1.1,0,1.7c0,0.3,1.3,1,1.6,1.1c0.5,0.3,1,0.7,1.6,1c2.4,1.3,4.9,2.3,7.7,2.5
		c5.2,0.5,10.4-1.4,14.5-4.6c0-0.6,0-1.1,0-1.7c-3.9,2.4-8.4,4-13,3.9C43.6,59.8,39.8,58.2,35.9,55.9z"/>
	<path fill="#F0EEE1" d="M35.9,51.6c0,0.6,0,1.1,0,1.7c3.8-2.2,7.7-3.9,12.3-3.9c4.6-0.1,9.1,1.5,13,3.9v-1.7
		c-3.5-2.7-7.9-4.6-12.3-4.7C44.1,46.9,39.7,48.8,35.9,51.6z"/>
	<path fill="#F0EEE1" d="M100.9,6.1c-2.3,0-4.3,1.9-4.3,4.3s1.9,4.3,4.3,4.3c2.3,0,4.3-1.9,4.3-4.3S103.2,6.1,100.9,6.1z
		 M100.9,13.5c-1.7,0-3.1-1.4-3.1-3.1c0-1.7,1.4-3.1,3.1-3.1s3.1,1.4,3.1,3.1C104,12.1,102.6,13.5,100.9,13.5z"/>
	<path fill="#F0EEE1" d="M101.6,10.7c0.8-0.1,1.3-0.8,1-1.6c-0.3-0.7-0.9-0.7-1.6-0.7h-1.8v4.2c0.5,0,0.8,0.2,0.8-0.3
		c0-0.5,0-0.9,0-1.4c0.7,0,0.9,0.3,1.3,0.8l0.6,0.9h1C102.7,11.9,102.3,11,101.6,10.7z M100.8,10.1h-0.6c0-0.3,0-0.7,0-1
		c0-0.1,0.8,0,1,0c0.4,0,0.9,0.2,0.7,0.7C101.7,10.2,101.1,10.1,100.8,10.1z"/>
</g>
</svg>
