<?xml version="1.0" encoding="utf-8"?>
<!-- Generator: Adobe Illustrator 16.0.3, SVG Export Plug-In . SVG Version: 6.00 Build 0)  -->
<!DOCTYPE svg PUBLIC "-//W3C//DTD SVG 1.1//EN" "http://www.w3.org/Graphics/SVG/1.1/DTD/svg11.dtd">
<svg version="1.1" xmlns="http://www.w3.org/2000/svg" xmlns:xlink="http://www.w3.org/1999/xlink" x="0px" y="0px" width="120px"
	 height="40px" viewBox="0 0 120 40" enable-background="new 0 0 120 40" xml:space="preserve">
<g id="Layer_1" display="none">
	
		<image display="inline" overflow="visible" width="121" height="121" xlink:href="BF0C4F84.jpg"  transform="matrix(4.501 0 0 4.501 0 267.6924)">
	</image>
	
		<image display="inline" overflow="visible" width="121" height="121" xlink:href="BF0C4F83.jpg"  transform="matrix(4.4759 0 0 4.4759 651.6924 270.7178)">
	</image>
	
		<image display="inline" overflow="visible" width="120" height="120" xlink:href="BF0C4F8C.jpg"  transform="matrix(4.4491 0 0 4.4491 1280.4619 267.6924)">
	</image>
</g>
<g id="Layer_3">
	<g>
		<path fill="#4F5559" d="M77.6,7.1H50.3c-0.3,0-0.5,0.2-0.5,0.5v23.6c0,0.3,0.2,0.5,0.5,0.5h27.3c0.3,0,0.5-0.2,0.5-0.5V7.6
			C78.1,7.3,77.8,7.1,77.6,7.1z M73.4,8.4c1.1,0,1.1,1.7,0,1.7C72.3,10.1,72.3,8.4,73.4,8.4z M71,8.4c1.1,0,1.1,1.7,0,1.7
			S69.9,8.4,71,8.4z M76.5,30.3H51V11.5h25.5V30.3z M75.6,10.1c-1.1,0-1.1-1.7,0-1.7C76.7,8.4,76.7,10.1,75.6,10.1z"/>
		<path fill="none" d="M51,30.3h25.5V11.5H51V30.3z M67.3,15.4c0.4-0.4,1,0.3,0.6,0.7C67.5,16.5,66.9,15.8,67.3,15.4
			C67.4,15.4,67.3,15.5,67.3,15.4z M65.9,15.4c0.4-0.4,1,0.3,0.6,0.7C66.1,16.5,65.5,15.8,65.9,15.4C65.9,15.4,65.8,15.5,65.9,15.4z
			 M64.4,15.4c0.4-0.4,1,0.3,0.6,0.7C64.6,16.5,64,15.8,64.4,15.4C64.5,15.4,64.3,15.5,64.4,15.4z M60.4,13.6
			c0.1-0.1,0.6-0.1,0.7,0.1l0.5,1.7l0,0l0,0l0.4-1.7c0-0.2,0.6-0.2,0.7,0l0.5,1.8l0,0l0,0l0.5-1.7c0-0.2,0.7-0.3,0.6,0.2L63.5,16
			c-0.1,0.2-0.8,0.2-0.9,0l-0.4-1.4l0,0l0,0L61.9,16c-0.1,0.2-0.8,0.2-0.9,0l-0.6-2.1C60.4,13.8,60.3,13.7,60.4,13.6
			C60.4,13.6,60.3,13.6,60.4,13.6z M56.3,13.6c0.1-0.1,0.6-0.1,0.7,0.1l0.5,1.7l0,0l0,0l0.4-1.7c0-0.2,0.6-0.2,0.7,0l0.5,1.8l0,0
			l0,0l0.5-1.7c0-0.2,0.7-0.2,0.6,0.2L59.4,16c-0.1,0.2-0.8,0.2-0.9,0l-0.4-1.4l0,0l0,0L57.8,16c-0.1,0.2-0.8,0.2-0.9,0l-0.6-2.1
			C56.3,13.8,56.2,13.7,56.3,13.6z M52.2,13.6c0.1-0.1,0.6-0.1,0.7,0.1l0.5,1.7l0,0l0,0l0.4-1.7c0-0.2,0.6-0.2,0.7,0l0.5,1.8l0,0
			l0,0l0.5-1.7c0-0.2,0.7-0.3,0.6,0.2L55.4,16c-0.1,0.2-0.8,0.2-0.9,0l-0.4-1.4l0,0l0,0L53.7,16c-0.1,0.2-0.8,0.2-0.9,0l-0.6-2.1
			C52.2,13.8,52.1,13.7,52.2,13.6C52.2,13.6,52.2,13.6,52.2,13.6z"/>
		<path fill="#4F5559" d="M75.6,8.4c-1.1,0-1.1,1.7,0,1.7C76.7,10.1,76.7,8.4,75.6,8.4z"/>
		<path fill="#4F5559" d="M73.4,10.1c1.1,0,1.1-1.7,0-1.7C72.3,8.4,72.3,10.1,73.4,10.1z"/>
		<path fill="#4F5559" d="M71,10.1c1.1,0,1.1-1.7,0-1.7C69.9,8.4,69.9,10.1,71,10.1z"/>
		<path fill="#4F5559" d="M52.2,13.9l0.6,2.1c0.1,0.2,0.8,0.2,0.9,0l0.4-1.4l0,0l0,0l0.4,1.4c0.1,0.2,0.8,0.2,0.9,0l0.6-2.1
			c0.1-0.4-0.6-0.4-0.6-0.2l-0.5,1.7l0,0l0,0l-0.5-1.8c0-0.2-0.6-0.2-0.7,0l-0.4,1.7l0,0l0,0l-0.5-1.7C52.8,13.5,52,13.4,52.2,13.9z
			"/>
		<path fill="#4F5559" d="M56.3,13.9l0.6,2.1c0.1,0.2,0.8,0.2,0.9,0l0.4-1.4l0,0l0,0l0.4,1.4c0.1,0.2,0.8,0.2,0.9,0l0.6-2.1
			c0.1-0.4-0.6-0.4-0.6-0.2L59,15.4l0,0l0,0l-0.5-1.8c0-0.2-0.6-0.2-0.7,0l-0.4,1.7l0,0l0,0l-0.5-1.7C56.9,13.5,56.1,13.4,56.3,13.9
			z"/>
		<path fill="#4F5559" d="M60.4,13.9L61,16c0.1,0.2,0.8,0.2,0.9,0l0.4-1.4l0,0l0,0l0.4,1.4c0.1,0.2,0.8,0.2,0.9,0l0.6-2.1
			c0.1-0.4-0.6-0.4-0.6-0.2l-0.5,1.7l0,0l0,0l-0.5-1.8c0-0.2-0.6-0.2-0.7,0l-0.4,1.7l0,0l0,0L61,13.7C60.9,13.4,60.2,13.4,60.4,13.9
			z"/>
		<path fill="#4F5559" d="M64.7,16.2c0.5,0,0.5-0.8,0-0.8C64.2,15.3,64.1,16.2,64.7,16.2z"/>
		<path fill="#4F5559" d="M66.1,16.2c0.5,0,0.5-0.8,0-0.8C65.6,15.3,65.6,16.2,66.1,16.2z"/>
		<path fill="#4F5559" d="M67.6,16.2c0.5,0,0.5-0.8,0-0.8C67.1,15.3,67.1,16.2,67.6,16.2z"/>
	</g>
	<g>
		<path fill="none" d="M6.5,28.4h32.7V8.8H6.5V28.4z M27.7,13.2c0.5-0.5,1.3,0.4,0.8,0.9C28,14.6,27.2,13.7,27.7,13.2
			C27.8,13.2,27.6,13.3,27.7,13.2z M25.8,13.2c0.5-0.5,1.3,0.4,0.8,0.9C26,14.6,25.3,13.7,25.8,13.2C25.8,13.2,25.7,13.3,25.8,13.2z
			 M23.8,13.2c0.5-0.5,1.3,0.4,0.8,0.9C24.1,14.6,23.3,13.7,23.8,13.2C23.9,13.2,23.8,13.3,23.8,13.2z M18.5,10.8
			c0.1-0.2,0.8-0.1,0.9,0.1l0.6,2.3l0,0l0,0l0.6-2.3c0.1-0.2,0.8-0.2,0.9,0l0.6,2.3l0,0l0,0l0.6-2.3c0-0.3,1-0.3,0.8,0.2L22.7,14
			c-0.1,0.3-1.1,0.3-1.2,0L21,12.1l0,0l0,0L20.5,14c-0.1,0.3-1.1,0.3-1.2,0l-0.8-2.8C18.5,11.1,18.4,10.9,18.5,10.8z M13.1,10.8
			c0.1-0.2,0.8-0.1,0.9,0.1l0.6,2.3l0,0l0,0l0.6-2.3c0.1-0.2,0.8-0.2,0.9,0l0.6,2.3l0,0l0,0l0.6-2.3c0-0.3,1-0.3,0.8,0.2L17.3,14
			c-0.1,0.3-1.1,0.3-1.2,0l-0.5-1.9l0,0l0,0L15.1,14c-0.1,0.3-1.1,0.3-1.2,0l-0.8-2.8C13.1,11.1,13,10.9,13.1,10.8z M7.7,10.8
			c0.1-0.2,0.8-0.1,0.9,0.1l0.6,2.3l0,0l0,0l0.6-2.3c0.1-0.2,0.8-0.2,0.9,0l0.6,2.3l0,0l0,0l0.6-2.3c0-0.3,1-0.3,0.8,0.2L11.9,14
			c-0.1,0.3-1.1,0.3-1.2,0l-0.5-1.9l0,0l0,0L9.7,14c-0.1,0.3-1.1,0.3-1.2,0l-0.8-2.8C7.7,11.1,7.6,10.9,7.7,10.8z"/>
		<path fill="#4F5559" d="M40.1,7.1H5.7C5.3,7.1,5,7.4,5,7.8v23.4c0,0.4,0.3,0.7,0.7,0.7h12.1v2.4h-3v1.5H31v-1.5h-3v-2.4h12
			c0.4,0,0.7-0.3,0.7-0.7V7.8C40.8,7.4,40.4,7.1,40.1,7.1z M39.2,28.4H6.5V8.8h32.7V28.4z"/>
		<path fill="#4F5559" d="M7.7,11.1L8.5,14c0.1,0.3,1.1,0.3,1.2,0l0.5-1.9l0,0l0,0l0.5,1.9c0.1,0.3,1.1,0.3,1.2,0l0.8-2.8
			c0.2-0.6-0.8-0.5-0.8-0.2l-0.6,2.3l0,0l0,0l-0.6-2.3c-0.1-0.2-0.8-0.2-0.9,0l-0.6,2.3l0,0l0,0l-0.6-2.3
			C8.5,10.6,7.5,10.6,7.7,11.1z"/>
		<path fill="#4F5559" d="M13.1,11.1l0.8,2.8c0.1,0.3,1.1,0.3,1.2,0l0.5-1.9l0,0l0,0l0.5,1.9c0.1,0.3,1.1,0.3,1.2,0l0.8-2.8
			c0.2-0.6-0.8-0.5-0.8-0.2l-0.6,2.3l0,0l0,0l-0.6-2.3c-0.1-0.2-0.8-0.2-0.9,0l-0.6,2.3l0,0l0,0L14,10.9
			C13.9,10.6,12.9,10.6,13.1,11.1z"/>
		<path fill="#4F5559" d="M18.5,11.1l0.8,2.8c0.1,0.3,1.1,0.3,1.2,0l0.5-1.9l0,0l0,0l0.5,1.9c0.1,0.3,1.1,0.3,1.2,0l0.8-2.8
			c0.1-0.6-0.8-0.5-0.8-0.2l-0.6,2.3l0,0l0,0l-0.6-2.3c-0.1-0.2-0.8-0.2-0.9,0L20,13.2l0,0l0,0l-0.6-2.3
			C19.3,10.6,18.3,10.6,18.5,11.1z"/>
		<path fill="#4F5559" d="M24.2,14.2c0.7,0,0.7-1.1,0-1.1C23.5,13.1,23.5,14.2,24.2,14.2z"/>
		<path fill="#4F5559" d="M26.2,14.2c0.7,0,0.7-1.1,0-1.1C25.5,13.1,25.4,14.2,26.2,14.2z"/>
		<path fill="#4F5559" d="M28.1,14.2c0.7,0,0.7-1.1,0-1.1C27.4,13.1,27.4,14.2,28.1,14.2z"/>
	</g>
	<g>
		<path fill="#4F5559" d="M112.5,8.4c-1.1,0-1.1,1.7,0,1.7C113.6,10.1,113.6,8.4,112.5,8.4z"/>
		<g>
			<path fill="#4F5559" d="M101.6,16.2c0.5,0,0.5-0.8,0-0.8C101.1,15.3,101,16.2,101.6,16.2z"/>
			<path fill="#4F5559" d="M103,16.2c0.5,0,0.5-0.8,0-0.8C102.5,15.3,102.5,16.2,103,16.2z"/>
			<path fill="#4F5559" d="M97.3,13.9l0.6,2.1c0.1,0.2,0.8,0.2,0.9,0l0.4-1.4l0,0l0,0l0.4,1.4c0.1,0.2,0.8,0.2,0.9,0l0.6-2.1
				c0.1-0.4-0.6-0.4-0.6-0.2l-0.5,1.7l0,0l0,0l-0.5-1.8c-0.1-0.2-0.6-0.2-0.7,0l-0.4,1.7l0,0l0,0l-0.5-1.7
				C97.9,13.5,97.1,13.4,97.3,13.9z"/>
			<rect x="87.9" y="8.4" fill="#4F5559" width="22.5" height="1.7"/>
			<path fill="#4F5559" d="M104.5,16.2c0.5,0,0.5-0.8,0-0.8S104,16.2,104.5,16.2z"/>
			<path fill="#4F5559" d="M112.5,8.4c-1.1,0-1.1,1.7,0,1.7C113.6,10.1,113.6,8.4,112.5,8.4z"/>
			<path fill="#4F5559" d="M114.5,7.1H87.2c-0.3,0-0.5,0.2-0.5,0.5v23.6c0,0.3,0.2,0.5,0.5,0.5h27.3c0.3,0,0.5-0.2,0.5-0.5V7.6
				C115,7.3,114.7,7.1,114.5,7.1z M87.9,8.4h22.5v1.7H87.9V8.4z M113.4,30.3H87.9V11.5h25.5V30.3z M112.5,10.1c-1.1,0-1.1-1.7,0-1.7
				C113.6,8.4,113.6,10.1,112.5,10.1z"/>
			<path fill="none" d="M87.9,30.3h25.5V11.5H87.9V30.3z M104.2,15.4c0.4-0.4,1,0.3,0.6,0.7C104.4,16.5,103.8,15.8,104.2,15.4
				C104.3,15.4,104.1,15.5,104.2,15.4z M102.7,15.4c0.4-0.4,1,0.3,0.6,0.7C103,16.5,102.4,15.8,102.7,15.4
				C102.8,15.4,102.7,15.5,102.7,15.4z M101.3,15.4c0.4-0.4,1,0.3,0.6,0.7C101.5,16.5,100.9,15.8,101.3,15.4
				C101.3,15.4,101.2,15.5,101.3,15.4z M97.2,13.6c0.1-0.1,0.6-0.1,0.7,0.1l0.5,1.7l0,0l0,0l0.4-1.7c0-0.2,0.6-0.2,0.7,0l0.5,1.8
				l0,0l0,0l0.5-1.7c0-0.2,0.7-0.3,0.6,0.2l-0.6,2.1c-0.1,0.2-0.8,0.2-0.9,0l-0.4-1.4l0,0l0,0L98.8,16c-0.1,0.2-0.8,0.2-0.9,0
				l-0.6-2.1C97.2,13.8,97.2,13.7,97.2,13.6C97.2,13.6,97.2,13.6,97.2,13.6z M93.1,13.6c0.1-0.1,0.6-0.1,0.7,0.1l0.5,1.7l0,0l0,0
				l0.4-1.7c0-0.2,0.6-0.2,0.7,0l0.5,1.8l0,0l0,0l0.5-1.7c0-0.2,0.7-0.3,0.6,0.2L96.3,16c-0.1,0.2-0.8,0.2-0.9,0L95,14.6l0,0l0,0
				L94.7,16c-0.1,0.2-0.8,0.2-0.9,0l-0.6-2.1C93.1,13.8,93.1,13.7,93.1,13.6C93.1,13.6,93.1,13.6,93.1,13.6z M89,13.6
				c0.1-0.1,0.6-0.1,0.7,0.1l0.5,1.7l0,0l0,0l0.4-1.7c0-0.2,0.6-0.2,0.7,0l0.5,1.8l0,0l0,0l0.5-1.7c0-0.2,0.7-0.3,0.6,0.2L92.2,16
				c-0.1,0.2-0.8,0.2-0.9,0L91,14.6l0,0l0,0L90.6,16c-0.1,0.2-0.8,0.2-0.9,0l-0.6-2.1C89,13.8,89,13.7,89,13.6z"/>
			<path fill="#4F5559" d="M89.1,13.9l0.6,2.1c0.1,0.2,0.8,0.2,0.9,0l0.4-1.4l0,0l0,0l0.4,1.4c0.1,0.2,0.8,0.2,0.9,0l0.6-2.1
				c0.1-0.4-0.6-0.4-0.6-0.2l-0.5,1.7l0,0l0,0l-0.5-1.8c-0.1-0.2-0.6-0.2-0.7,0l-0.4,1.7l0,0l0,0l-0.5-1.7
				C89.7,13.5,88.9,13.4,89.1,13.9z"/>
			<path fill="#4F5559" d="M93.2,13.9l0.6,2.1c0.1,0.2,0.8,0.2,0.9,0l0.4-1.4l0,0l0,0l0.4,1.4c0.1,0.2,0.8,0.2,0.9,0l0.6-2.1
				c0.1-0.4-0.6-0.4-0.6-0.2l-0.5,1.7l0,0l0,0l-0.5-1.8c0-0.2-0.6-0.2-0.7,0l-0.4,1.7l0,0l0,0l-0.5-1.7C93.7,13.4,93,13.4,93.2,13.9
				z"/>
		</g>
		<path fill="#4F5559" d="M97.3,13.9l0.6,2.1c0.1,0.2,0.8,0.2,0.9,0l0.4-1.4l0,0l0,0l0.4,1.4c0.1,0.2,0.8,0.2,0.9,0l0.6-2.1
			c0.1-0.4-0.6-0.4-0.6-0.2l-0.5,1.7l0,0l0,0l-0.5-1.8c-0.1-0.2-0.6-0.2-0.7,0l-0.4,1.7l0,0l0,0l-0.5-1.7
			C97.9,13.5,97.1,13.4,97.3,13.9z"/>
		<path fill="#4F5559" d="M101.6,16.2c0.5,0,0.5-0.8,0-0.8C101.1,15.3,101,16.2,101.6,16.2z"/>
		<path fill="#4F5559" d="M103,16.2c0.5,0,0.5-0.8,0-0.8C102.5,15.3,102.5,16.2,103,16.2z"/>
		<path fill="#4F5559" d="M104.5,16.2c0.5,0,0.5-0.8,0-0.8S104,16.2,104.5,16.2z"/>
	</g>
</g>
<g id="Layer_4">
</g>
</svg>
